<svg width="160" height="160" viewBox="0 0 160 160" fill="none" xmlns="http://www.w3.org/2000/svg">
<path fill-rule="evenodd" clip-rule="evenodd" d="M93.4851 2.40002C129.573 2.40002 154.398 41.9128 154.398 73.986C154.398 106.059 116.894 126.4 80.7811 126.4C44.6684 126.4 22.3984 95.8327 22.3984 63.8269C22.3984 31.8211 57.3977 2.40002 93.4851 2.40002Z" fill="#CDE1FF"/>
<path fill-rule="evenodd" clip-rule="evenodd" d="M42.1937 94.7C38.6985 85.8304 36.9022 76.3824 36.8984 66.8488C36.8984 45.0795 51.2584 24.5446 70.5547 13.6376C75.0973 14.0052 79.6008 14.7559 84.0171 15.8818C116.035 24.41 119.401 63.0111 102.685 82.2444C85.9692 101.478 45.2452 94.5204 43.4726 93.8247L42.1937 94.7Z" fill="#B0C8EB"/>
<path fill-rule="evenodd" clip-rule="evenodd" d="M131.855 141.582C132.82 146.789 136.971 156.978 130.262 156.978C125.415 156.978 121.758 153.544 116.014 149.976C114.017 150.761 68.3568 158.369 49.801 137.049C31.2452 115.729 34.8352 72.3472 70.6679 62.8092C104.189 53.8322 151.443 64.3577 150.837 106.707C150.635 120.644 144.824 132.762 136.926 138.732C135.378 139.916 133.671 140.875 131.855 141.582Z" fill="#7872B9"/>
<path fill-rule="evenodd" clip-rule="evenodd" d="M38.7188 106.078C38.7188 87.5185 48.5015 68.7117 70.6697 62.8093C84.2003 59.2371 98.3814 58.8988 112.067 61.8218C112.642 72.6517 109.117 83.3008 102.194 91.6479C85.6131 110.724 44.7769 103.924 43.0043 103.228C41.3888 104.238 40.0426 105.203 38.7188 106.078Z" fill="#645F9E"/>
<path fill-rule="evenodd" clip-rule="evenodd" d="M22.3614 86.1718C21.4863 90.8174 17.8739 99.929 23.7749 99.929C28.1054 99.929 31.4037 96.8544 36.5194 93.6676C38.292 94.3633 79.1506 101.163 95.7319 82.1097C112.313 63.056 109.194 24.2528 77.064 15.7471C47.0875 7.75758 4.81528 17.1161 5.48841 55.0889C5.66791 67.5669 10.851 78.3842 17.9188 83.7255C19.2789 84.7434 20.7741 85.5667 22.3614 86.1718Z" fill="#FFCF70"/>
<path fill-rule="evenodd" clip-rule="evenodd" d="M31.337 65.39C33.1698 65.39 34.9614 64.8465 36.4853 63.828C38.0092 62.8096 39.1969 61.362 39.8983 59.6683C40.5997 57.9747 40.7832 56.111 40.4256 54.313C40.0681 52.5151 39.1855 50.8635 37.8895 49.5673C36.5936 48.271 34.9424 47.3883 33.1448 47.0306C31.3473 46.673 29.4841 46.8565 27.7908 47.5581C26.0975 48.2596 24.6503 49.4476 23.632 50.9719C22.6138 52.4961 22.0703 54.2881 22.0703 56.1213C22.0762 58.5777 23.0544 60.9318 24.791 62.6688C26.5276 64.4057 28.8811 65.3841 31.337 65.39Z" fill="white"/>
<path fill-rule="evenodd" clip-rule="evenodd" d="M55.5021 65.7715C57.3368 65.776 59.1315 65.2356 60.6588 64.2188C62.1861 63.202 63.3773 61.7547 64.0815 60.0601C64.7856 58.3656 64.971 56.5001 64.6142 54.7C64.2574 52.9 63.3743 51.2464 62.077 49.9487C60.7797 48.6511 59.1265 47.7679 57.3268 47.411C55.5272 47.0541 53.6621 47.2395 51.9679 47.9439C50.2738 48.6482 48.8267 49.8396 47.8102 51.3673C46.7937 52.895 46.2534 54.6901 46.2578 56.5252C46.2696 58.9738 47.2474 61.3188 48.9785 63.0503C50.7095 64.7818 53.054 65.7597 55.5021 65.7715Z" fill="white"/>
<path fill-rule="evenodd" clip-rule="evenodd" d="M79.9346 65.39C81.7674 65.39 83.559 64.8465 85.0829 63.828C86.6068 62.8096 87.7946 61.362 88.4959 59.6683C89.1973 57.9747 89.3808 56.111 89.0233 54.313C88.6657 52.5151 87.7831 50.8635 86.4872 49.5673C85.1912 48.271 83.54 47.3883 81.7425 47.0306C79.9449 46.673 78.0817 46.8565 76.3884 47.5581C74.6952 48.2596 73.2479 49.4476 72.2297 50.9719C71.2114 52.4961 70.668 54.2881 70.668 56.1213C70.668 58.5795 71.6443 60.937 73.3821 62.6753C75.12 64.4135 77.477 65.39 79.9346 65.39Z" fill="white"/>
<path fill-rule="evenodd" clip-rule="evenodd" d="M77.601 124.235C79.1808 124.235 80.7252 123.766 82.0388 122.888C83.3523 122.01 84.3762 120.763 84.9807 119.303C85.5853 117.843 85.7435 116.236 85.4353 114.686C85.1271 113.137 84.3663 111.713 83.2492 110.596C82.1321 109.478 80.7088 108.717 79.1594 108.409C77.6099 108.101 76.0038 108.259 74.5442 108.864C73.0847 109.469 71.8372 110.493 70.9595 111.806C70.0818 113.12 69.6133 114.665 69.6133 116.245C69.6133 118.364 70.4548 120.396 71.9528 121.895C73.4508 123.393 75.4825 124.235 77.601 124.235Z" fill="white"/>
<path fill-rule="evenodd" clip-rule="evenodd" d="M98.6485 124.661C100.228 124.678 101.778 124.227 103.101 123.364C104.424 122.501 105.462 121.264 106.083 119.811C106.704 118.358 106.88 116.754 106.589 115.201C106.298 113.648 105.553 112.216 104.449 111.086C103.345 109.956 101.93 109.179 100.384 108.854C98.8383 108.528 97.2306 108.668 95.7643 109.256C94.2981 109.844 93.0391 110.854 92.1467 112.158C91.2542 113.462 90.7684 115.001 90.7505 116.581C90.7387 117.63 90.9336 118.672 91.3241 119.646C91.7146 120.62 92.293 121.507 93.0265 122.257C93.7599 123.007 94.6338 123.606 95.5985 124.018C96.5631 124.431 97.5995 124.649 98.6485 124.661Z" fill="white"/>
<path fill-rule="evenodd" clip-rule="evenodd" d="M119.492 124.235C121.071 124.235 122.616 123.766 123.929 122.888C125.243 122.01 126.267 120.763 126.871 119.303C127.476 117.843 127.634 116.236 127.326 114.686C127.018 113.137 126.257 111.713 125.14 110.596C124.023 109.478 122.599 108.717 121.05 108.409C119.501 108.101 117.894 108.259 116.435 108.864C114.975 109.469 113.728 110.493 112.85 111.806C111.972 113.12 111.504 114.665 111.504 116.245C111.504 118.364 112.345 120.396 113.843 121.895C115.341 123.393 117.373 124.235 119.492 124.235Z" fill="white"/>
</svg>
