<svg width="160" height="160" viewBox="0 0 160 160" fill="none" xmlns="http://www.w3.org/2000/svg">
<path fill-rule="evenodd" clip-rule="evenodd" d="M85.8121 2.22217C126.01 2.22217 153.559 51.7581 153.559 91.9421C153.559 132.126 111.814 157.656 71.6622 157.656C31.51 157.656 6.66797 119.429 6.66797 79.2225C6.66797 39.0157 45.6372 2.22217 85.8121 2.22217Z" fill="#CDE1FF"/>
<path fill-rule="evenodd" clip-rule="evenodd" d="M84.0568 21.2673C114.859 21.2673 136.016 59.2214 136.016 90.0079C136.016 120.794 104.03 140.363 73.2509 140.363C42.4714 140.363 23.4531 111.078 23.4531 80.269C23.4531 49.4598 53.2772 21.2673 84.0568 21.2673Z" fill="#7872B9"/>
<path fill-rule="evenodd" clip-rule="evenodd" d="M74.6654 46.024C74.074 49.1868 71.0938 48.2994 65.9525 51.2575C54.8509 57.7197 54.851 68.2776 53.4405 69.9159C53.1292 70.2492 52.7521 70.5143 52.3331 70.6945C51.9142 70.8746 51.4624 70.9659 51.0064 70.9626C44.4319 70.8261 50.2784 59.2442 51.5978 56.9688C53.2399 54.0875 55.3547 51.503 57.8538 49.3234C60.3472 47.0458 63.2187 45.2209 66.3393 43.9306C68.0316 43.1609 69.8235 42.6324 71.6625 42.3606C72.11 42.3774 72.5487 42.4891 72.9498 42.6883C73.3508 42.8874 73.705 43.1695 73.9888 43.5159C74.2727 43.8622 74.4798 44.2649 74.5964 44.6972C74.7131 45.1296 74.7366 45.5818 74.6654 46.024ZM47.2018 89.2002C47.2018 88.9271 47.1923 88.9726 47.6018 89.2002C48.0112 89.4277 48.307 89.6097 48.6937 89.7918C54.7975 92.8679 61.7153 94.5632 68.5459 94.8002C68.6824 94.6181 68.5459 94.6498 68.5459 94.2174C67.944 90.7975 67.0846 87.4278 65.9753 84.1373L61.2435 69.5974C60.4928 67.504 61.6985 65.5471 63.8596 66.3435C64.5977 66.6733 65.3122 67.0534 65.998 67.4812C66.726 67.8681 67.3175 68.2094 68.0454 68.6417L70.1611 69.7794C70.8384 70.2151 71.5453 70.6029 72.2767 70.9399C74.3242 69.4836 76.8266 66.1842 78.4645 66.1842C80.1024 66.1842 82.5821 69.4836 84.6296 70.9399L92.1367 66.7303C93.7292 65.8429 95.5946 66.0477 95.8676 67.9363C94.7122 72.5598 93.3073 77.1173 91.659 81.5888C90.5878 84.6257 89.7065 87.7263 89.0201 90.8726C94.5798 88.5526 99.5932 85.0959 103.739 80.7242L106.014 78.4488C108.727 75.2912 111.021 71.796 112.838 68.0501C113.089 67.5495 113.498 66.2525 113.953 66.0932C113.531 63.4566 112.766 60.8865 111.678 58.4478C110.06 54.579 107.747 51.0392 104.853 48.0036C104.516 47.5229 104.118 47.0871 103.671 46.7066C102.715 45.9785 102.033 45.1593 101.054 44.4312C100.076 43.7031 99.1662 43.0204 98.188 42.3606C91.985 38.3577 84.7118 36.336 77.3334 36.5636C69.955 36.7911 62.8202 39.2573 56.8756 43.6348C54.7827 45.2276 54.8055 45.4324 53.5543 46.4791C53.2358 46.7521 53.1675 46.7294 52.849 47.0252C52.5305 47.321 52.212 47.8671 51.7116 48.3449C50.1014 50.0675 48.6827 51.9595 47.4802 53.988C44.9959 58.1357 43.3731 62.7418 42.7086 67.531C42.0441 72.3202 42.3517 77.1943 43.6129 81.8619C43.9775 83.0896 44.4259 84.2908 44.9551 85.4571C45.2281 86.0942 45.4556 86.5493 45.7513 87.1409C46.4793 88.6882 46.4965 88.9726 47.2018 89.2002Z" fill="#FFCF70"/>
<path fill-rule="evenodd" clip-rule="evenodd" d="M59.1692 138.315C59.1692 138.315 58.9871 138.315 59.4194 138.952L61.6943 141.455C62.3333 142.065 63.0095 142.635 63.719 143.162C64.663 143.844 65.6773 144.424 66.7446 144.891C67.2858 145.153 67.8491 145.366 68.428 145.528L69.429 145.756C69.9749 145.961 69.9977 146.097 70.0432 146.143L70.248 146.325V145.801H86.6501V146.325L86.9686 146.052C87.0526 145.964 87.153 145.895 87.2643 145.847C89.0449 145.457 90.7455 144.764 92.2919 143.799L95.6132 141.023C95.9999 140.591 96.091 140.409 96.5459 139.953C96.8746 139.611 97.1787 139.246 97.4559 138.861C97.9564 138.292 97.8199 138.27 98.6161 138.019C99.1376 137.886 99.6232 137.639 100.038 137.296C100.454 136.954 100.788 136.524 101.019 136.037C101.249 135.551 101.369 135.019 101.37 134.481C101.372 133.942 101.255 133.41 101.028 132.922C100.537 132.046 99.7187 131.4 98.7526 131.125V128.963C99.4445 128.753 100.071 128.369 100.572 127.848C100.859 127.546 101.08 127.188 101.221 126.797C101.362 126.405 101.42 125.988 101.392 125.573C101.392 123.297 100.209 122.774 98.7526 122V120.089C100.254 119.293 101.414 118.769 101.392 116.38C101.39 115.551 101.138 114.741 100.666 114.058C100.195 113.376 99.5277 112.852 98.7526 112.557C94.6958 112.244 90.6234 112.183 86.559 112.375H78.4831V119.907H58.3047V122.182H78.4831V129.009H58.3729V131.284H78.4831V138.11L59.1692 138.315Z" fill="#D7C3E6"/>
<path fill-rule="evenodd" clip-rule="evenodd" d="M89.0849 90.8047C88.1516 94.1569 87.5047 97.5824 87.1513 101.044C86.6922 104.819 86.4643 108.618 86.4688 112.421C90.5332 112.229 94.6055 112.29 98.6623 112.603C98.5179 110.249 98.8427 107.89 99.6178 105.663C100.288 103.824 101.182 102.074 102.279 100.453C102.575 99.9747 102.734 99.8154 103.053 99.3603L105.578 95.9017C107.967 92.8755 110.026 89.6031 111.72 86.1401C114.303 80.2988 115.178 73.8455 114.245 67.5271C114.245 67.0721 114.245 66.2074 113.95 65.9799C113.495 66.1391 113.085 67.4361 112.835 67.9367C111.018 71.6826 108.724 75.1778 106.01 78.3354L103.735 80.6108C99.6141 84.9912 94.6242 88.4631 89.0849 90.8047Z" fill="#FFCF70"/>
<path fill-rule="evenodd" clip-rule="evenodd" d="M68.5423 94.3086C69.2147 97.107 69.6785 99.9515 69.9299 102.819C70.242 105.995 70.3939 109.184 70.3849 112.375H74.7073C74.4798 109.258 74.5481 106.209 74.2523 103.092C74.0389 100.253 73.6284 97.4319 73.0239 94.6499C71.8984 89.0802 70.3779 83.5978 68.474 78.2441C67.798 76.4877 67.2208 74.6949 66.7451 72.8741C68.2465 73.4429 71.4769 76.1279 73.2058 75.6046C73.9338 75.3998 75.2077 73.989 75.7765 73.5112C76.3452 73.0334 76.5044 72.7831 76.9594 72.3963C77.4144 72.0094 77.8012 71.6454 78.3471 71.2585C78.8704 71.6454 79.1889 71.9412 79.6438 72.328C83.3065 75.3998 82.8515 76.8788 86.8326 74.6034C87.8295 73.9812 88.8626 73.4189 89.9264 72.9196C89.4972 74.5391 88.9808 76.1342 88.3795 77.698L85.3766 87.6416C85.0354 88.802 84.4439 91.9421 84.0799 92.7158C83.8979 94.2403 83.4884 95.8331 83.2382 97.4031C82.9879 98.9732 82.7832 100.566 82.624 102.204C82.2588 105.59 82.0765 108.993 82.0779 112.398H86.3548C86.3502 108.595 86.5782 104.796 87.0373 101.021C87.3908 97.5593 88.0376 94.1339 88.9709 90.7817C89.6573 87.6354 90.5386 84.5348 91.6098 81.4979C93.2581 77.0264 94.663 72.4689 95.8184 67.8454C95.5454 65.9568 93.68 65.752 92.0876 66.6394L84.5121 70.8262C82.4647 69.3699 79.9623 66.0706 78.3471 66.0706C76.7319 66.0706 74.2068 69.3699 72.1594 70.8262C71.428 70.4892 70.721 70.1014 70.0437 69.6657L67.928 68.528C67.2 68.0957 66.6086 67.7544 65.8806 67.3676C65.1947 66.9397 64.4802 66.5596 63.7422 66.2299C61.581 65.4335 60.3753 67.3903 61.126 69.4837L65.9716 84.1374C67.0854 87.4576 67.9448 90.8578 68.5423 94.3086Z" fill="white"/>
<path fill-rule="evenodd" clip-rule="evenodd" d="M73.0244 94.6727C74.996 94.5891 76.9583 94.5394 78.8936 94.1534C80.759 93.7893 82.4198 93.2432 84.1942 92.8791C84.5582 92.1055 85.1496 88.7793 85.4908 87.6189L88.4937 77.6753C89.095 76.1115 89.6114 74.5164 90.0407 72.8969C88.9768 73.3962 87.9437 73.9585 86.9468 74.5807C82.9657 76.8561 83.4207 75.4226 79.7581 72.3053C79.3031 71.9185 78.9846 71.6227 78.4614 71.2358C77.9154 71.6227 77.5287 71.9867 77.0737 72.3736C76.6187 72.7604 76.3684 73.1244 75.8907 73.4885C75.413 73.8526 74.0481 75.3771 73.3201 75.5819C71.5912 76.1052 68.3608 73.4202 66.8594 72.8514C67.3351 74.6722 67.9123 76.4651 68.5883 78.2214C70.4557 83.5928 71.9382 89.0905 73.0244 94.6727Z" fill="#FFCF70"/>
<path fill-rule="evenodd" clip-rule="evenodd" d="M58.2396 112.535C62.2827 112.253 66.3385 112.199 70.3876 112.375C70.3965 109.184 70.2447 105.995 69.9326 102.819C69.6812 99.9516 69.2174 97.1071 68.5449 94.3086C68.5449 94.6954 68.5449 94.5589 68.4311 94.7409C61.6391 94.4877 54.9816 92.7725 48.9124 89.7123C48.5257 89.5302 48.2072 89.3482 47.8205 89.1206C47.4337 88.8931 47.0243 88.5063 46.9333 88.7793C46.7513 89.553 47.9115 90.85 48.3664 91.5098C50.9826 95.4691 55.4641 100.612 57.1248 104.821C58.073 107.275 58.4541 109.912 58.2396 112.535Z" fill="#FFCF70"/>
<path fill-rule="evenodd" clip-rule="evenodd" d="M74.662 46.024C74.7331 45.5819 74.7096 45.1297 74.593 44.6973C74.4763 44.2649 74.2692 43.8622 73.9854 43.5159C73.7015 43.1696 73.3473 42.8875 72.9463 42.6883C72.5452 42.4892 72.1065 42.3775 71.6591 42.3606C69.82 42.6324 68.0281 43.1609 66.3358 43.9306C63.2153 45.2209 60.3437 47.0458 57.8503 49.3234C55.3513 51.5031 53.2364 54.0876 51.5943 56.9688C50.2749 59.2442 44.4284 70.8261 51.0029 70.9627C51.4589 70.966 51.9107 70.8747 52.3296 70.6945C52.7486 70.5143 53.1257 70.2493 53.437 69.916C54.8475 68.2777 54.8475 57.7197 65.949 51.2575C71.0903 48.2539 74.0705 49.1869 74.662 46.024Z" fill="white"/>
<path fill-rule="evenodd" clip-rule="evenodd" d="M73.0234 94.6728C73.628 97.4549 74.0385 100.276 74.2519 103.115C74.5476 106.232 74.4794 109.281 74.7068 112.398H82.1913C82.1899 108.993 82.3721 105.59 82.7373 102.204C82.8965 100.566 83.1241 98.9734 83.3516 97.4033C83.579 95.8333 84.0113 94.2405 84.1933 92.7159C82.4188 93.08 80.7581 93.6261 78.8927 93.9902C76.9567 94.3685 74.9945 94.5967 73.0234 94.6728Z" fill="#FFCF70"/>
<path fill-rule="evenodd" clip-rule="evenodd" d="M69.6988 146.176C69.093 147.329 71.4677 149.709 72.655 150.435C76.7018 152.94 83.2202 152.489 86.128 148.707C86.5157 148.18 87.4849 147.053 87.1215 146.201V145.6H69.6503L69.6988 146.176Z" fill="#D7C3E6"/>
<path fill-rule="evenodd" clip-rule="evenodd" d="M58.8769 109.804C65.7016 109.531 71.7756 109.486 78.5093 109.486C79.9755 109.489 81.3803 110.074 82.4149 111.113C83.4495 112.152 84.029 113.56 84.026 115.026C84.023 116.493 83.4376 117.898 82.3988 118.933C81.36 119.968 79.9527 120.547 78.4866 120.544C72.2078 120.544 66.3613 120.544 60.0143 120.795C59.2856 120.898 58.5434 120.854 57.8322 120.664C57.121 120.474 56.4552 120.143 55.8746 119.691C55.294 119.238 54.8104 118.674 54.4527 118.03C54.095 117.387 53.8705 116.678 53.7925 115.946C53.7146 115.214 53.7848 114.473 53.9991 113.769C54.2133 113.065 54.5672 112.411 55.0395 111.846C55.5119 111.281 56.0931 110.818 56.7484 110.483C57.4038 110.147 58.1199 109.948 58.8541 109.895L58.8769 109.804Z" fill="#F1E6F7"/>
<path fill-rule="evenodd" clip-rule="evenodd" d="M58.5802 120.407H77.4847C78.9388 120.407 80.3333 120.985 81.3615 122.014C82.3896 123.042 82.9672 124.437 82.9672 125.891C82.9672 127.346 82.3896 128.74 81.3615 129.769C80.3333 130.797 78.9388 131.375 77.4847 131.375H58.5802C57.1261 131.375 55.7316 130.797 54.7035 129.769C53.6753 128.74 53.0977 127.346 53.0977 125.891C53.0977 124.437 53.6753 123.042 54.7035 122.014C55.7316 120.985 57.1261 120.407 58.5802 120.407Z" fill="#F1E6F7"/>
<path fill-rule="evenodd" clip-rule="evenodd" d="M58.5802 131.057H77.4847C78.9388 131.057 80.3333 131.635 81.3615 132.663C82.3896 133.691 82.9672 135.086 82.9672 136.541C82.9672 137.995 82.3896 139.39 81.3615 140.418C80.3333 141.447 78.9388 142.024 77.4847 142.024H58.5802C57.1261 142.024 55.7316 141.447 54.7035 140.418C53.6753 139.39 53.0977 137.995 53.0977 136.541C53.0977 135.086 53.6753 133.691 54.7035 132.663C55.7316 131.635 57.1261 131.057 58.5802 131.057Z" fill="#F1E6F7"/>
</svg>
