<svg width="160" height="160" viewBox="0 0 160 160" fill="none" xmlns="http://www.w3.org/2000/svg">
<path fill-rule="evenodd" clip-rule="evenodd" d="M81.932 1.06665C122.094 1.06665 149.633 50.5871 149.633 90.7583C149.633 130.93 107.899 156.443 67.7365 156.443C27.5743 156.443 2.91797 118.238 2.91797 78.1106C2.91797 37.9831 41.8353 1.06665 81.932 1.06665Z" fill="#CDE1FF"/>
<path fill-rule="evenodd" clip-rule="evenodd" d="M52.1226 138.226C51.1727 139.33 49.8819 140.087 48.4541 140.375C47.0263 140.664 45.543 140.469 44.2387 139.82C43.0636 139.236 42.0957 138.306 41.4651 137.155C40.6921 135.837 40.4648 134.27 40.8318 132.786C40.9912 131.776 41.3849 130.817 41.9814 129.986C42.5778 129.155 43.3605 128.475 44.2667 128.001C45.173 127.527 46.1776 127.272 47.2002 127.255C48.2228 127.239 49.2349 127.463 50.1557 127.908C51.0764 128.354 51.8801 129.008 52.5025 129.82C53.1248 130.632 53.5485 131.578 53.7397 132.583C53.9309 133.588 53.8842 134.623 53.6034 135.607C53.3226 136.591 52.8155 137.495 52.1226 138.247V138.226ZM9.27425 116.644C10.1697 115.748 10.3007 114.809 11.8731 113.629C13.567 112.225 15.6553 111.382 17.8492 111.216C20.0431 111.051 22.2342 111.572 24.1193 112.706C26.0044 113.841 27.4904 115.534 28.3717 117.55C29.253 119.566 29.4861 121.807 29.0387 123.961C28.7461 125.3 28.1811 126.564 27.3789 127.675C26.6014 128.876 25.5825 129.903 24.3868 130.689C23.1912 131.475 21.845 132.003 20.434 132.24C20.303 132.415 20.0846 131.978 20.434 132.568C20.434 133.027 20.2593 132.415 20.434 132.83L29.6065 141.568C40.6044 150.734 53.8659 156.77 67.9997 159.043C68.2617 158.65 68.1963 158.65 68.1744 158.016C67.5651 149.602 65.3407 141.385 61.6227 133.813C59.4683 129.506 56.8384 125.455 53.7824 121.733L52.8433 120.597C51.8169 119.265 49.1744 116.84 48.1042 115.617L43.7364 111.947C42.164 110.724 40.81 109.763 39.1065 108.605C28.1429 101.415 15.2375 97.7627 2.13281 98.1418C3.30687 103.02 4.94504 107.774 7.02483 112.34C7.65624 113.834 8.40855 115.273 9.27425 116.644Z" fill="#FAA8B7"/>
<path fill-rule="evenodd" clip-rule="evenodd" d="M9.6875 117.088C11.7923 121.187 14.4774 125.408 17.354 129.007L20.5207 132.568C20.1713 131.978 20.3897 132.415 20.5207 132.24C21.9317 132.003 23.2778 131.475 24.4734 130.689C25.6691 129.903 26.6881 128.876 27.4655 127.675C27.8857 125.258 27.6053 122.772 26.6575 120.51C26.0212 119.075 25.038 117.822 23.7966 116.862C22.6652 115.924 21.3501 115.234 19.9359 114.835C18.5216 114.436 16.8638 113.996 15.4093 114.205C13.2341 114.501 11.2202 115.516 9.6875 117.088Z" fill="#E698A6"/>
<path fill-rule="evenodd" clip-rule="evenodd" d="M40.8316 132.721C40.4646 134.204 40.6919 135.772 41.4649 137.09C42.0955 138.241 43.0634 139.171 44.2385 139.755C45.5428 140.403 47.0261 140.599 48.4539 140.31C49.8816 140.021 51.1725 139.265 52.1224 138.16C52.0817 136.775 51.8009 135.408 51.2925 134.119C50.9991 133.538 50.6159 133.007 50.1569 132.546C49.3856 131.799 48.4423 131.252 47.4103 130.955C46.3783 130.658 45.289 130.619 44.2385 130.842C42.9308 131.087 41.7364 131.745 40.8316 132.721Z" fill="#E698A6"/>
<path fill-rule="evenodd" clip-rule="evenodd" d="M9.27344 116.644C9.29347 116.799 9.36227 116.945 9.46998 117.059C9.71021 117.43 9.62282 117.277 9.7757 117.43C11.3084 115.858 13.3223 114.843 15.4975 114.547C16.952 114.338 18.4341 114.436 19.8484 114.835C21.2626 115.234 22.5777 115.924 23.7091 116.862C24.9505 117.822 25.9337 119.076 26.57 120.51C27.5178 122.772 27.7982 125.258 27.378 127.675C28.1802 126.564 28.7452 125.3 29.0378 123.961C29.4853 121.807 29.2522 119.566 28.3709 117.55C27.4896 115.534 26.0036 113.841 24.1185 112.706C22.2334 111.572 20.0423 111.051 17.8484 111.216C15.6545 111.382 13.5662 112.225 11.8723 113.629C10.2999 114.809 10.1688 115.748 9.27344 116.644Z" fill="#DB8897"/>
<path fill-rule="evenodd" clip-rule="evenodd" d="M40.832 132.721C41.7399 131.754 42.934 131.103 44.2389 130.864C45.2895 130.641 46.3787 130.68 47.4108 130.977C48.4428 131.274 49.3861 131.821 50.1574 132.568C50.6163 133.029 50.9996 133.56 51.293 134.141C51.8014 135.43 52.0822 136.797 52.1229 138.182C52.8158 137.43 53.3229 136.525 53.6037 135.542C53.8845 134.558 53.9312 133.522 53.74 132.517C53.5488 131.512 53.1251 130.566 52.5027 129.755C51.8804 128.943 51.0766 128.288 50.1559 127.843C49.2352 127.397 48.223 127.174 47.2004 127.19C46.1778 127.206 45.1732 127.462 44.267 127.936C43.3608 128.41 42.5781 129.09 41.9816 129.92C41.3852 130.751 40.9914 131.711 40.832 132.721Z" fill="#DB8897"/>
<path fill-rule="evenodd" clip-rule="evenodd" d="M114.889 31.8453C117.771 31.2518 120.77 31.8273 123.227 33.4454C125.684 35.0635 127.399 37.5916 127.993 40.4737C128.379 42.302 128.303 44.198 127.772 45.9896C127.241 47.7812 126.271 49.4119 124.95 50.7337C123.629 52.0555 121.999 53.0266 120.208 53.5591C118.418 54.0916 116.522 54.1685 114.694 53.7829C112.866 53.3973 111.163 52.5614 109.739 51.351C108.316 50.1405 107.217 48.5938 106.542 46.8512C105.868 45.1085 105.638 43.2249 105.876 41.3713C106.113 39.5176 106.809 37.7525 107.901 36.2359C109.559 33.9516 112.028 32.3885 114.802 31.8671L114.889 31.8453ZM122.054 9.75954C121.034 10.2009 120.139 10.9065 119.104 11.3119C112.741 14.5725 106.744 18.505 101.218 23.0422L93.9672 29.355C91.1718 32.4132 89.5993 33.5491 87.197 36.3014L82.8292 41.0416C82.1676 41.8668 81.437 42.6341 80.6453 43.3352C79.9863 44.2916 79.2562 45.1971 78.4614 46.0439C77.7407 46.8303 76.9545 47.7696 76.2775 48.6215C74.8005 50.3264 73.4501 52.137 72.2372 54.0389C70.7521 57.3592 62.5188 65.9001 69.005 75.2276C70.132 76.9372 71.3877 78.5584 72.7613 80.0769C73.2199 80.6012 72.8924 80.5575 73.5912 80.4046C73.8533 80.2735 75.9062 77.9363 76.2775 77.5212C80.0338 73.1524 95.7143 58.4295 99.6453 62.2304C103.576 66.0312 90.8005 79.094 87.1752 82.8512C86.2142 83.856 85.2097 84.6424 84.2706 85.6253C83.3315 86.6083 82.2177 87.4166 81.2786 88.4432C83.847 90.9924 87.1162 92.7186 90.6694 93.4018C92.8001 93.6445 94.9579 93.4361 97.0028 92.7902C98.7457 92.1255 100.445 91.3521 102.091 90.4747C104.079 89.9942 114.692 80.623 116.592 79.3343L121.222 75.0965C122.03 74.4193 122.773 73.5893 123.559 72.9121C124.404 72.2576 125.186 71.5264 125.896 70.7277C126.61 69.9148 127.376 69.1487 128.189 68.4341C129.019 67.6477 129.587 66.905 130.482 66.2497L138.934 56.398C141.598 52.9135 144.041 49.2657 146.25 45.476C146.774 44.6022 149.155 39.9494 149.504 39.6654C149.985 38.3766 150.465 37.4811 151.033 36.1486C151.613 34.9417 152.081 33.684 152.431 32.3914C143.941 29.5503 136.791 23.6889 132.338 15.921C130.759 13.2063 129.624 10.2566 128.975 7.18335C127.833 7.32616 124.177 8.84118 122.054 9.75954Z" fill="#FFCF70"/>
<path fill-rule="evenodd" clip-rule="evenodd" d="M128.996 6.96495C129.644 10.0382 130.78 12.9879 132.359 15.7026C136.812 23.4705 143.962 29.3319 152.451 32.173L154.482 26.3843C155.103 24.2318 155.592 22.0433 155.946 19.8311C156.688 15.4623 157.016 9.17122 155.007 5.89461C152.517 1.83161 140.178 3.84128 135.177 5.08639C133.076 5.56913 131.01 6.19679 128.996 6.96495Z" fill="#CDE1FF"/>
<path fill-rule="evenodd" clip-rule="evenodd" d="M102.114 90.4742C101.655 91.2825 100.17 91.9596 99.3186 92.5057L96.3703 94.3188C94.2995 95.5541 92.0429 96.4466 89.6875 96.9619C90.168 100.064 90.7358 103.144 91.1726 106.333C91.4324 109.394 92.0181 112.418 92.9197 115.355C94.5358 119.374 97.1347 117.539 99.4715 115.682C101.418 113.979 103.277 112.179 105.04 110.287C108.949 106.823 112.146 102.631 114.453 97.9449C117.06 92.1086 117.822 85.6151 116.637 79.3337C114.693 80.6225 104.101 89.9937 102.114 90.4742Z" fill="white"/>
<path fill-rule="evenodd" clip-rule="evenodd" d="M62.9992 70.2907C63.4141 66.4462 68.2187 59.2157 70.7302 55.8518C71.2544 55.1528 71.5165 54.4101 72.259 54.0387C73.4719 52.1369 74.8223 50.3262 76.2993 48.6214C76.9544 47.7695 77.7406 46.8302 78.4832 46.0438C79.278 45.197 80.0081 44.2915 80.6671 43.3351C74.4283 42.2086 67.9954 42.9692 62.1911 45.5195C57.4867 47.8065 53.279 50.9983 49.8084 54.9125C48.0612 56.66 46.0301 58.4949 44.5014 60.3735C42.9727 62.2521 40.4175 65.3102 44.5014 67.0359C47.4291 67.9777 50.4556 68.5788 53.521 68.8271C56.7095 69.1985 59.8762 69.8538 62.9992 70.2907Z" fill="white"/>
<path fill-rule="evenodd" clip-rule="evenodd" d="M81.3455 95.5861C79.5901 94.6609 77.9849 93.4752 76.5845 92.0692C75.0994 93.0304 69.7488 96.8312 67.3902 94.6468C65.0316 92.4624 68.7879 87.1543 69.5741 85.4942C69.2029 84.7733 69.0937 84.8825 68.504 84.2927C67.9144 83.7029 67.8926 83.5282 67.4994 83.1132C66.7132 82.2613 66.2327 81.5186 65.4902 80.7322C56.4925 82.1084 47.4074 103.603 53.5442 108.78C57.912 112.362 66.4074 108.998 70.5132 106.967C72.8699 105.788 75.0707 104.321 77.0649 102.598C79.1945 100.77 80.6926 98.316 81.3455 95.5861Z" fill="#9690D4"/>
<path fill-rule="evenodd" clip-rule="evenodd" d="M73.6112 80.4044C72.9123 81.3656 72.279 82.0209 71.5364 83.0039C70.7939 83.9869 70.2479 84.8169 69.6364 85.4723C68.7847 87.1324 64.8755 92.2658 67.4525 94.6249C70.0296 96.9841 75.1617 93.0085 76.6468 92.0474C77.4012 91.4027 78.1885 90.7975 79.0055 90.2343C79.757 89.5657 80.5443 88.9386 81.3641 88.3557C82.3031 87.329 83.2859 86.6518 84.356 85.5378C85.4261 84.4238 86.2997 83.7685 87.2607 82.7636C90.886 79.0065 103.553 65.7471 99.7308 62.1428C95.9089 58.5386 80.0756 73.2178 76.3629 77.4337C75.9262 77.9361 73.8733 80.2952 73.6112 80.4044Z" fill="white"/>
<path fill-rule="evenodd" clip-rule="evenodd" d="M22.8147 28.5467C24.1879 29.7487 25.2771 31.241 26.0032 32.9155C26.7456 34.8585 27.3227 36.8607 27.7285 38.9008C28.9078 30.2942 33.4503 25.7944 42.0113 24.6148C40.0165 24.2198 38.0586 23.6571 36.1584 22.9328C34.4811 22.1919 32.9893 21.0877 31.7906 19.6999L31.0262 18.8698C30.7683 18.5376 30.5347 18.1871 30.3273 17.8213C28.9304 15.4192 28.0664 12.7447 27.794 9.97925C27.794 9.97925 27.794 9.97922 27.794 10.0884L26.2871 15.7461C25.6102 17.3871 24.6073 18.8734 23.3388 20.1149C21.3593 22.0436 18.8768 23.3759 16.1756 23.9594L13.1836 24.6148C16.6541 24.8508 19.9624 26.1729 22.64 28.3938L22.8147 28.5467Z" fill="#9690D4"/>
<path fill-rule="evenodd" clip-rule="evenodd" d="M115.936 34.4226C114.286 34.6538 112.742 35.3689 111.498 36.4775C110.254 37.5861 109.366 39.0385 108.947 40.6513C108.528 42.2641 108.596 43.965 109.142 45.5392C109.689 47.1134 110.69 48.4904 112.018 49.4961C113.347 50.5018 114.943 51.0912 116.606 51.1899C118.27 51.2886 119.925 50.8921 121.363 50.0506C122.801 49.209 123.957 47.9602 124.686 46.4617C125.415 44.9632 125.684 43.2822 125.458 41.6311C125.308 40.5317 124.942 39.4727 124.382 38.5149C123.822 37.5571 123.078 36.7194 122.193 36.0497C121.309 35.38 120.3 34.8915 119.227 34.6123C118.153 34.3331 117.035 34.2687 115.936 34.4226Z" fill="#9690D4"/>
<path fill-rule="evenodd" clip-rule="evenodd" d="M115.936 34.4225C117.584 34.1912 119.262 34.4526 120.762 35.1736C122.261 35.8947 123.513 37.0433 124.361 38.4748C125.209 39.9062 125.614 41.5565 125.526 43.218C125.438 44.8795 124.861 46.4779 123.867 47.8118C122.873 49.1458 121.506 50.1557 119.939 50.7145C118.372 51.2732 116.675 51.3559 115.062 50.952C113.448 50.5481 111.99 49.6757 110.871 48.4447C109.752 47.2136 109.022 45.6789 108.773 44.0338C108.603 42.9311 108.655 41.8057 108.924 40.723C109.193 39.6403 109.675 38.622 110.342 37.7275C111.009 36.833 111.847 36.0801 112.807 35.5127C113.768 34.9453 114.831 34.5747 115.936 34.4225ZM114.888 31.8012C112.114 32.3225 109.645 33.8857 107.987 36.17C106.895 37.6865 106.199 39.4517 105.962 41.3053C105.725 43.159 105.954 45.0425 106.629 46.7852C107.303 48.5279 108.402 50.0746 109.826 51.285C111.249 52.4955 112.952 53.3314 114.78 53.7169C116.608 54.1025 118.504 54.0256 120.295 53.4932C122.086 52.9607 123.715 51.9895 125.036 50.6677C126.357 49.3459 127.327 47.7153 127.858 45.9237C128.39 44.1321 128.465 42.2361 128.079 40.4077C127.778 38.9776 127.197 37.6209 126.371 36.4158C125.544 35.2106 124.488 34.1807 123.262 33.385C122.036 32.5894 120.666 32.0437 119.229 31.7794C117.792 31.5151 116.316 31.5374 114.888 31.8449V31.8012Z" fill="#6B66A6"/>
<path fill-rule="evenodd" clip-rule="evenodd" d="M106.176 129.117C108.906 129.859 111.505 130.056 113.951 132.546C115.837 134.74 117.024 137.448 117.357 140.323C118.449 133.507 121.616 130.187 128.474 129.16C126.29 128.243 121.223 128.483 118.537 122.389C117.948 120.994 117.558 119.523 117.379 118.02C117.003 120.842 115.838 123.5 114.016 125.687C111.819 127.612 109.08 128.81 106.176 129.117Z" fill="#FFCF70"/>
<path fill-rule="evenodd" clip-rule="evenodd" d="M62.9986 70.2904C62.584 72.2494 62.6894 74.2828 63.3044 76.1883C63.5708 76.9847 63.8994 77.7589 64.2871 78.5038C64.7482 79.2087 65.171 79.9378 65.5538 80.6882C66.2963 81.4746 66.7768 82.2173 67.563 83.0692C67.9561 83.4842 68.1745 83.8774 68.5676 84.2488C68.9607 84.6201 69.2664 84.7293 69.6377 85.4502C70.2492 84.7948 70.9699 83.7464 71.5377 82.9818C72.1055 82.2173 72.9136 81.3435 73.6124 80.3824C72.9136 80.5353 73.2412 80.579 72.7825 80.0547C71.4089 78.5362 70.1532 76.915 69.0262 75.2054C62.4745 65.878 70.7734 57.3369 72.2584 54.0166C71.5159 54.388 71.2538 55.1306 70.7297 55.8296C68.2182 59.2155 63.4135 66.4459 62.9986 70.2904Z" fill="#9690D4"/>
<path fill-rule="evenodd" clip-rule="evenodd" d="M76.582 92.0473C77.9824 93.4533 79.5877 94.639 81.343 95.5642C82.484 96.2127 83.7233 96.6702 85.012 96.9185C86.5569 97.2025 88.1406 97.2025 89.6855 96.9185C92.0409 96.4032 94.2975 95.5107 96.3683 94.2754L99.3166 92.4624C100.168 91.9163 101.653 91.2391 102.112 90.4309C100.466 91.3083 98.7664 92.0816 97.0235 92.7464C94.9786 93.3923 92.8208 93.6007 90.6902 93.358C87.1268 92.6504 83.8564 90.8931 81.2993 88.312C80.4795 88.8949 79.6922 89.522 78.9407 90.1906C78.1227 90.768 77.3354 91.3878 76.582 92.0473Z" fill="#9690D4"/>
<path fill-rule="evenodd" clip-rule="evenodd" d="M68.6094 120.99C73.6761 121.777 75.5324 124.027 76.5589 128.876C76.6643 126.819 77.5287 124.874 78.985 123.417C80.4413 121.961 82.3859 121.096 84.4428 120.99C81.2106 120.27 78.9174 119.374 77.4761 116.294C77.0247 115.281 76.7302 114.206 76.6025 113.105C76.2511 115.094 75.3937 116.96 74.1129 118.522C72.5714 119.885 70.6518 120.745 68.6094 120.99Z" fill="white"/>
<path fill-rule="evenodd" clip-rule="evenodd" d="M127.031 98.0104C127.948 98.491 129.215 98.6439 130.242 99.0808C131.744 99.8261 133.025 100.953 133.956 102.348C134.888 103.743 135.437 105.358 135.549 107.032C136.444 104.848 136.094 101.353 141.096 99.0153C142.231 98.491 143.76 98.3818 144.568 98.0104C142.32 97.649 140.205 96.7079 138.431 95.2799C136.845 93.5118 135.858 91.2866 135.614 88.9233C135.336 91.1427 134.427 93.2355 132.993 94.9523C130.853 97.3988 128.494 97.2677 127.031 98.0104Z" fill="#9690D4"/>
<path fill-rule="evenodd" clip-rule="evenodd" d="M24.6055 73.742C28.5584 74.2881 30.0652 76.2322 30.8514 79.9894C31.0788 78.4383 31.7286 76.9798 32.7296 75.7735C34.3021 74.0915 35.8526 74.2226 37.0975 73.5891C35.5059 73.4857 34.0067 72.8053 32.8809 71.6752C31.7552 70.5452 31.0802 69.0432 30.9825 67.4509C29.8687 69.5916 30.6112 72.2348 24.6055 73.742Z" fill="#9690D4"/>
</svg>
