<svg width="160" height="160" viewBox="0 0 160 160" fill="none" xmlns="http://www.w3.org/2000/svg">
<path fill-rule="evenodd" clip-rule="evenodd" d="M86.6271 12C116.917 12 138.922 26.567 150.664 53.768C162.152 80.3812 159.802 113.803 138.976 133.965C122.407 150.006 98.4888 158 71.3246 158C27.8252 158 1 122.009 1 84.3252C1 46.641 43.1582 12 86.6271 12Z" fill="#CDE1FF"/>
<path fill-rule="evenodd" clip-rule="evenodd" d="M67.0545 2.58057C105.576 2.58057 145.09 30.2702 145.09 68.7588C145.09 107.247 119.378 145.182 80.8567 145.182C42.3352 145.182 0.859375 115.924 0.859375 77.4349C0.859375 38.9463 28.5561 2.58057 67.0545 2.58057Z" fill="#9690D4"/>
<path fill-rule="evenodd" clip-rule="evenodd" d="M66.8233 17.2329C97.8667 17.2329 129.718 39.5462 129.718 70.5817C129.718 101.617 108.945 132.191 77.9481 132.191C46.9509 132.191 13.4609 108.609 13.4609 77.5733C13.4609 46.5378 35.7799 17.2329 66.8233 17.2329Z" fill="#CDE1FF"/>
<path fill-rule="evenodd" clip-rule="evenodd" d="M117.141 39.0847C125.119 47.6468 129.605 58.8813 129.72 70.5817C129.72 101.617 108.948 132.191 77.9506 132.191C63.0022 131.989 48.4854 127.152 36.4056 118.346C28.1462 109.703 23.4416 98.2701 23.2266 86.3186C23.2266 55.2831 45.5455 25.9783 76.5889 25.9783C91.1358 26.056 105.302 30.6344 117.141 39.0847Z" fill="white"/>
<path d="M41.0365 108.399L68.3442 82.1269C68.6397 81.8426 69.0361 81.6873 69.4462 81.6952C69.8562 81.703 70.2463 81.8734 70.5307 82.1689L70.7708 82.4183C71.0594 82.7181 71.2171 83.1203 71.2091 83.5364C71.2011 83.9525 71.0281 84.3483 70.7282 84.6369L43.4371 110.893C43.1416 111.177 42.7452 111.333 42.3352 111.325C41.9251 111.317 41.535 111.146 41.2506 110.851L40.9785 110.568C40.6941 110.273 40.5388 109.877 40.5467 109.467C40.5545 109.057 40.725 108.667 41.0205 108.382L41.0365 108.399Z" fill="#CDE1FF"/>
<path fill-rule="evenodd" clip-rule="evenodd" d="M93.182 99.1022L90.6893 101.687C90.296 102.075 89.7652 102.294 89.2121 102.294C88.659 102.294 88.1282 102.075 87.7349 101.687L72.1094 86.7341C73.8254 84.6278 75.1115 82.2053 75.8946 79.604L93.1127 96.0793C93.3204 96.2705 93.4874 96.5016 93.6038 96.7587C93.7201 97.0159 93.7834 97.2939 93.7899 97.576C93.7963 97.8582 93.7458 98.1388 93.6414 98.401C93.5369 98.6632 93.3807 98.9017 93.182 99.1022Z" fill="#CDE1FF"/>
<path d="M76.2403 41.8767H72.6628C71.5029 41.8767 70.5625 42.8168 70.5625 43.9765V79.6038C70.5625 80.7635 71.5029 81.7036 72.6628 81.7036H76.2403C77.4003 81.7036 78.3407 80.7635 78.3407 79.6038V43.9765C78.3407 42.8168 77.4003 41.8767 76.2403 41.8767Z" fill="#CDE1FF"/>
<path fill-rule="evenodd" clip-rule="evenodd" d="M74.8335 72.1507C76.5078 72.1552 78.1433 72.6558 79.5332 73.5891C80.9231 74.5224 82.0053 75.8465 82.6428 77.3943C83.2804 78.9421 83.4449 80.6441 83.1154 82.2853C82.786 83.9265 81.9774 85.4333 80.7919 86.6153C79.6063 87.7973 78.097 88.6016 76.4545 88.9264C74.812 89.2513 73.11 89.0823 71.5636 88.4407C70.0171 87.799 68.6956 86.7136 67.7658 85.3215C66.8361 83.9294 66.3398 82.293 66.3398 80.6191C66.3398 79.505 66.5597 78.402 66.9868 77.373C67.414 76.3441 68.04 75.4095 68.829 74.6228C69.618 73.8362 70.5545 73.2129 71.5849 72.7887C72.6153 72.3644 73.7192 72.1476 74.8335 72.1507Z" fill="#CDE1FF"/>
<path d="M72.6622 39.9844H69.0847C67.9247 39.9844 66.9844 40.9245 66.9844 42.0842V77.7115C66.9844 78.8712 67.9247 79.8113 69.0847 79.8113H72.6622C73.8222 79.8113 74.7626 78.8712 74.7626 77.7115V42.0842C74.7626 40.9245 73.8222 39.9844 72.6622 39.9844Z" fill="#FAA8B7"/>
<path fill-rule="evenodd" clip-rule="evenodd" d="M92.096 95.1102L89.6264 97.6946C89.4332 97.8899 89.2032 98.045 88.9496 98.1508C88.6961 98.2567 88.424 98.3112 88.1493 98.3112C87.8745 98.3112 87.6024 98.2567 87.3489 98.1508C87.0953 98.045 86.8653 97.8899 86.6721 97.6946L71.0234 82.7652C72.7342 80.6468 74.0195 78.2179 74.8087 75.6121L92.0268 92.0874C92.2404 92.2749 92.4128 92.5047 92.533 92.7623C92.6532 93.0198 92.7186 93.2995 92.7251 93.5836C92.7316 93.8677 92.679 94.1501 92.5708 94.4129C92.4625 94.6757 92.3008 94.9131 92.096 95.1102Z" fill="#FAA8B7"/>
<path d="M68.005 79.9241L40.6807 106.212C40.0653 106.804 40.0465 107.783 40.6387 108.398L40.8948 108.664C41.487 109.279 42.4659 109.298 43.0813 108.706L70.4056 82.4181C71.021 81.826 71.0398 80.8473 70.4476 80.2321L70.1915 79.9661C69.5993 79.3508 68.6204 79.332 68.005 79.9241Z" fill="#FFCF70"/>
<path fill-rule="evenodd" clip-rule="evenodd" d="M71.0952 86.1343C72.7761 86.1343 74.4192 85.6357 75.8165 84.7016C77.2137 83.7676 78.3024 82.44 78.9446 80.887C79.5867 79.3341 79.7536 77.6256 79.424 75.9778C79.0944 74.3299 78.2831 72.8169 77.093 71.6303C75.9028 70.4437 74.3872 69.6368 72.7381 69.3117C71.089 68.9867 69.3805 69.1581 67.8289 69.8044C66.2772 70.4506 64.9523 71.5426 64.0218 72.942C63.0913 74.3415 62.597 75.9855 62.6016 77.6659C62.6077 79.914 63.5053 82.0679 65.0975 83.6554C66.6897 85.2429 68.8466 86.1343 71.0952 86.1343Z" fill="#6B66A6"/>
<path fill-rule="evenodd" clip-rule="evenodd" d="M72.4104 34.0082C73.4558 34.0082 74.4777 33.6982 75.3469 33.1176C76.2161 32.537 76.8935 31.7117 77.2935 30.7462C77.6936 29.7807 77.7983 28.7182 77.5943 27.6932C77.3904 26.6682 76.887 25.7266 76.1478 24.9876C75.4086 24.2486 74.4669 23.7454 73.4416 23.5415C72.4163 23.3376 71.3536 23.4422 70.3878 23.8422C69.422 24.2421 68.5965 24.9194 68.0157 25.7884C67.435 26.6573 67.125 27.679 67.125 28.7241C67.125 30.1255 67.6818 31.4695 68.6731 32.4605C69.6643 33.4514 71.0086 34.0082 72.4104 34.0082Z" fill="#CDE1FF"/>
<path fill-rule="evenodd" clip-rule="evenodd" d="M24.7268 77.5504C25.7722 77.5504 26.7941 77.2405 27.6633 76.6599C28.5325 76.0793 29.2099 75.254 29.61 74.2884C30.01 73.3229 30.1147 72.2604 29.9108 71.2354C29.7068 70.2104 29.2034 69.2689 28.4642 68.5299C27.725 67.7909 26.7833 67.2876 25.758 67.0837C24.7327 66.8798 23.67 66.9845 22.7042 67.3844C21.7384 67.7843 20.9129 68.4616 20.3322 69.3306C19.7514 70.1996 19.4414 71.2212 19.4414 72.2663C19.4475 73.6659 20.0063 75.0064 20.9962 75.996C21.9861 76.9857 23.3269 77.5443 24.7268 77.5504Z" fill="#CDE1FF"/>
<path fill-rule="evenodd" clip-rule="evenodd" d="M121.11 79.4656C122.156 79.4702 123.181 79.1642 124.053 78.5863C124.925 78.0085 125.606 77.1848 126.01 76.2197C126.413 75.2545 126.521 74.1914 126.32 73.1649C126.119 72.1383 125.617 71.1946 124.879 70.4533C124.14 69.712 123.199 69.2065 122.173 69.0007C121.147 68.7949 120.083 68.8982 119.116 69.2975C118.149 69.6967 117.322 70.374 116.74 71.2434C116.158 72.1129 115.848 73.1354 115.848 74.1815C115.845 74.8743 115.979 75.5609 116.242 76.2019C116.505 76.8429 116.892 77.4256 117.381 77.9165C117.87 78.4075 118.451 78.7971 119.091 79.063C119.731 79.3288 120.417 79.4656 121.11 79.4656Z" fill="#CDE1FF"/>
<path fill-rule="evenodd" clip-rule="evenodd" d="M72.4104 124.922C73.4558 124.922 74.4777 124.612 75.3469 124.032C76.2161 123.451 76.8935 122.626 77.2935 121.66C77.6936 120.695 77.7983 119.632 77.5943 118.607C77.3904 117.582 76.887 116.641 76.1478 115.902C75.4086 115.163 74.4669 114.659 73.4416 114.456C72.4163 114.252 71.3536 114.356 70.3878 114.756C69.422 115.156 68.5965 115.833 68.0157 116.702C67.435 117.571 67.125 118.593 67.125 119.638C67.1311 121.038 67.6899 122.378 68.6798 123.368C69.6697 124.357 71.0105 124.916 72.4104 124.922Z" fill="#CDE1FF"/>
<path fill-rule="evenodd" clip-rule="evenodd" d="M106.567 109.947C107.613 109.952 108.638 109.646 109.51 109.068C110.382 108.49 111.063 107.666 111.467 106.701C111.87 105.736 111.978 104.673 111.777 103.646C111.576 102.62 111.074 101.676 110.336 100.935C109.597 100.193 108.656 99.6879 107.63 99.4821C106.604 99.2764 105.54 99.3797 104.573 99.7789C103.606 100.178 102.779 100.855 102.197 101.725C101.615 102.594 101.305 103.617 101.305 104.663C101.302 105.356 101.436 106.042 101.699 106.683C101.962 107.324 102.349 107.907 102.838 108.398C103.327 108.889 103.908 109.279 104.548 109.544C105.188 109.81 105.874 109.947 106.567 109.947Z" fill="#CDE1FF"/>
<path fill-rule="evenodd" clip-rule="evenodd" d="M34.7659 105.678C35.8113 105.678 36.8332 105.368 37.7024 104.788C38.5716 104.207 39.249 103.382 39.649 102.416C40.0491 101.451 40.1538 100.388 39.9498 99.3633C39.7459 98.3383 39.2425 97.3968 38.5033 96.6578C37.7641 95.9188 36.8223 95.4155 35.7971 95.2116C34.7718 95.0078 33.709 95.1124 32.7433 95.5123C31.7775 95.9123 30.952 96.5896 30.3712 97.4585C29.7905 98.3275 29.4805 99.3491 29.4805 100.394C29.4865 101.794 30.0453 103.134 31.0352 104.124C32.0251 105.114 33.366 105.672 34.7659 105.678Z" fill="#CDE1FF"/>
<path fill-rule="evenodd" clip-rule="evenodd" d="M105.832 48.6834C106.878 48.6834 107.9 48.3735 108.769 47.7929C109.638 47.2123 110.315 46.387 110.715 45.4215C111.115 44.4559 111.22 43.3935 111.016 42.3685C110.812 41.3434 110.309 40.4019 109.57 39.6629C108.831 38.9239 107.889 38.4207 106.863 38.2168C105.838 38.0129 104.775 38.1175 103.81 38.5175C102.844 38.9174 102.018 39.5947 101.438 40.4636C100.857 41.3326 100.547 42.3543 100.547 43.3994C100.553 44.7989 101.112 46.1394 102.102 47.1291C103.092 48.1187 104.432 48.6774 105.832 48.6834Z" fill="#CDE1FF"/>
<path fill-rule="evenodd" clip-rule="evenodd" d="M39.4261 48.3836C40.4714 48.3836 41.4933 48.0738 42.3625 47.4931C43.2317 46.9125 43.9092 46.0872 44.3092 45.1217C44.7092 44.1561 44.8139 43.0937 44.61 42.0687C44.406 41.0436 43.9026 40.1021 43.1635 39.3631C42.4243 38.6241 41.4825 38.1209 40.4572 37.917C39.4319 37.7131 38.3692 37.8177 37.4034 38.2177C36.4376 38.6176 35.6122 39.2949 35.0314 40.1638C34.4506 41.0328 34.1406 42.0545 34.1406 43.0996C34.1467 44.4991 34.7055 45.8396 35.6954 46.8293C36.6853 47.8189 38.0262 48.3776 39.4261 48.3836Z" fill="#CDE1FF"/>
</svg>
