<svg width="160" height="160" viewBox="0 0 160 160" fill="none" xmlns="http://www.w3.org/2000/svg">
<path d="M80.2851 159.245C123.869 159.245 159.204 124.585 159.208 81.8292C159.211 39.0739 123.869 16 80.2852 16C53.9103 22.2479 30.7326 33.1942 15.6232 52.8129C2.45355 69.9129 -0.741234 93.7373 8.20305 113.379C20.512 140.408 48.1554 159.245 80.2851 159.245Z" fill="#CDE1FF"/>
<path d="M95.1773 143.413C130.266 135.155 152.019 100.01 143.763 64.9127C135.507 29.816 100.369 8.05865 65.2801 16.3164C30.1912 24.5741 8.4388 59.7199 16.6947 94.8166C24.9505 129.913 60.0884 151.671 95.1773 143.413Z" fill="#7872B9"/>
<path fill-rule="evenodd" clip-rule="evenodd" d="M80.2034 14.575C91.9776 14.5753 103.533 17.7591 113.646 23.7896C123.76 29.8201 132.055 38.4729 137.655 48.8325C138.045 51.7691 138.241 54.7282 138.243 57.6906C138.244 72.2211 133.398 86.3366 124.474 97.8018C115.549 109.267 103.055 117.426 88.9711 120.988C74.8869 124.549 60.0175 123.309 46.7175 117.464C33.4176 111.618 22.4475 101.502 15.5444 88.7167C15.1539 85.7801 14.9577 82.821 14.957 79.8585C14.957 62.5482 21.8305 45.9465 34.0659 33.7041C46.3013 21.4617 62.8969 14.5809 80.2034 14.575Z" fill="#9690D4"/>
<path fill-rule="evenodd" clip-rule="evenodd" d="M119.289 27.2068C126.346 32.4161 132.28 38.9949 136.737 46.55C141.194 54.1052 144.083 62.4816 145.23 71.1786C146.377 79.8757 145.76 88.7148 143.414 97.1677C141.069 105.621 137.044 113.514 131.58 120.375C129.907 119.045 128.391 117.529 127.061 115.856C127.118 112.522 126.838 109.191 126.225 105.913C123.04 101.281 126.519 95.8348 125.389 94.2078C119.267 85.3044 128.417 78.706 110.478 79.1128C106.163 79.1128 95.6579 70.4354 96.7875 66.2775C96.7875 65.9386 108.084 57.2386 108.219 53.7134C102.255 51.4537 107.519 45.0586 109.914 45.149C115.449 45.3298 113.099 39.9517 111.314 39.4771C104.763 37.7145 106.005 33.873 108.016 33.1047C114.409 30.619 112.534 34.1894 114.003 37.6241C114.884 39.8839 126.067 36.0197 121.052 33.4662C116.036 30.9127 116.782 28.54 119.289 27.2068Z" fill="#FFCF70"/>
<path fill-rule="evenodd" clip-rule="evenodd" d="M51.5316 21.4672C51.8705 22.1677 52.2094 22.3259 55.6886 20.2695C57.8122 19.0041 58.1737 22.5292 56.2308 23.0264C55.8467 23.9529 59.2581 23.7043 58.9418 21.0378C58.7159 19.2526 63.4603 19.0041 62.647 20.7666C60.6589 25.1279 88.2665 13.9874 78.7326 25.964C76.8349 28.2237 73.4009 27.0261 72.0905 27.5006C71.4127 30.732 76.9704 27.5006 76.496 37.4661C76.3604 40.5167 81.8278 42.2793 70.9157 41.3528C66.8717 40.9912 72.0679 45.3299 64.7029 45.8722C57.9252 46.3016 46.3354 59.8148 46.1546 59.8148C41.5007 59.8148 44.031 51.9283 34.113 66.7747C30.3853 72.3337 45.1832 64.1083 45.4091 72.3337C45.6802 85.2593 57.1796 69.3508 61.0429 76.4464C64.5673 82.9318 69.4924 76.1074 72.339 82.9318C74.9823 89.3268 73.8753 85.5305 79.8396 87.5643C87.2047 90.0726 83.9966 92.4227 85.4877 92.9424C86.0751 90.6827 88.8313 94.3208 87.1143 97.4619C81.2855 107.811 85.6458 106.727 83.5674 110.614C82.0297 111.456 80.4458 112.21 78.823 112.873C78.823 121.912 77.8063 118.116 71.3676 124.172C69.515 125.934 64.5899 122.974 71.3676 134.182C73.1072 137.03 70.3735 142.837 62.4662 132.42C57.0893 125.347 61.7659 121.121 56.5923 112.534C51.2153 103.676 59.8681 98.5691 51.1023 95.0214C44.5958 92.3549 50.2438 84.3328 50.1987 83.8809C49.8146 80.6947 39.7159 82.6832 34.0904 73.8251C31.673 70.0288 26.9287 73.9607 24.5113 65.7353C23.3139 61.6903 23.4947 61.9841 18.0273 59.408C20.8177 51.1777 25.2169 43.5848 30.9689 37.0711C36.7209 30.5575 43.7107 25.2532 51.5316 21.4672Z" fill="#FFCF70"/>
<path fill-rule="evenodd" clip-rule="evenodd" d="M118.995 27.3652C126.705 33.0756 133.074 40.4023 137.656 48.8327C138.046 51.7693 138.242 54.7284 138.244 57.6908C138.275 71.668 133.798 85.2826 125.479 96.513C125.757 95.7854 125.757 94.9808 125.479 94.2532C119.357 85.3499 128.506 78.7515 110.568 79.1582C106.253 79.1582 95.7478 70.4809 96.8774 66.323C96.8774 65.984 108.173 57.2841 108.309 53.7589C102.345 51.4991 107.609 45.1041 110.003 45.1945C115.539 45.3753 113.189 39.9971 111.404 39.5226C104.852 37.76 106.095 33.9184 108.106 33.1501C114.499 30.6644 112.624 34.2348 114.093 37.6696C114.974 39.9293 126.157 36.0652 121.141 33.5117C116.126 30.9582 116.713 28.7211 118.995 27.3652Z" fill="#FFDB94"/>
<path fill-rule="evenodd" clip-rule="evenodd" d="M71.3705 122.952C67.3296 122.855 63.3062 122.386 59.3515 121.55C59.3615 117.963 58.3761 114.443 56.5049 111.382C51.1279 102.546 59.7807 97.4392 51.015 93.8688C44.5084 91.2249 50.1564 83.1803 50.1113 82.7283C49.7272 79.5421 39.6285 81.5533 34.003 72.6725C31.5856 68.8762 26.8413 72.8081 24.4239 64.6053C23.2717 60.696 23.3847 60.8316 18.5273 58.5266C21.3643 50.3586 25.7892 42.833 31.5472 36.3833C37.3053 29.9336 44.2825 24.6875 52.0768 20.9473C52.5286 20.9473 53.3871 20.631 55.3301 19.5011L56.5275 19.0266C57.883 19.0266 57.9056 21.693 56.2338 22.0546C55.8497 22.9585 59.2611 22.7099 58.9448 20.0434C58.7189 18.2809 63.4633 18.0097 62.6499 19.7723C60.6618 24.1336 88.2695 12.9931 78.7356 24.9696C76.8379 27.365 73.4038 26.0543 72.0935 26.5063C71.4157 29.7377 76.9734 26.5063 76.499 36.4717C76.3634 39.5223 81.8307 41.3075 70.9187 40.3584C66.8747 39.9969 72.0709 44.3355 64.7058 44.8779C57.9282 45.3298 46.3384 58.8204 46.1576 58.8204C41.5036 58.8204 44.034 50.9339 34.116 65.7804C30.3883 71.3393 45.1862 63.1139 45.4121 71.3619C45.6832 84.265 57.1826 68.3565 61.0459 75.452C64.5703 81.9374 69.4954 75.1131 72.342 81.9374C74.9853 88.3325 73.8783 84.5361 79.8426 86.4569C87.2077 88.9878 83.9996 91.3379 85.4907 91.8577C86.0781 89.5979 88.8343 93.2135 87.1173 96.2641C81.2885 106.636 85.6488 105.552 83.5703 109.416C82.0327 110.258 80.4487 111.012 78.826 111.675C78.7356 120.579 77.7415 116.85 71.3705 122.952Z" fill="#FFDB94"/>
</svg>
