<svg width="150" height="150" viewBox="0 0 150 150" fill="none" xmlns="http://www.w3.org/2000/svg">
<path fill-rule="evenodd" clip-rule="evenodd" d="M86.4974 12.9541C119.679 12.9541 142.5 53.6193 142.5 86.5027C142.5 119.386 108.03 140.454 74.8242 140.454C41.6187 140.454 21.1367 109.065 21.1367 76.0872C21.1367 43.109 53.2919 12.9541 86.4974 12.9541Z" fill="#FACD6E"/>
<path fill-rule="evenodd" clip-rule="evenodd" d="M117.739 26.5909C124.338 32.9928 129.722 40.5132 133.637 48.795C116.903 65.3476 103.611 84.9269 89.8894 103.891C76.8847 121.863 70.215 132.267 49.9191 113.35C40.3569 104.483 31.201 94.8348 21.7344 85.7309C21.3464 82.5925 21.1468 79.434 21.1367 76.2723C21.1963 68.559 22.8732 60.942 26.0613 53.9026C26.7711 54.2665 27.4505 54.6856 28.0933 55.1559C41.2414 66.4116 53.3138 79.2281 65.936 91.3115C72.7013 82.3731 80.5901 70.4552 85.9211 63.3612C95.3896 50.1843 106.039 37.8778 117.739 26.5909Z" fill="#DDB258"/>
<path fill-rule="evenodd" clip-rule="evenodd" d="M24.4872 48.0096C37.5903 59.3078 49.6213 72.1724 62.2002 84.3013C68.9423 75.3293 76.8042 63.3665 82.1168 56.2459C95.6725 38.1356 106.989 24.369 124.618 9.91407C127.491 7.92586 131.023 7.12076 134.478 7.66704C137.932 8.21332 141.041 10.0687 143.154 12.8454C145.267 15.622 146.222 19.105 145.818 22.5664C145.413 26.0277 143.682 29.1994 140.985 31.4185C118.734 49.6711 102.724 73.8339 86.0715 96.9998C73.1114 115.039 66.4646 125.482 46.2383 106.494C33.445 94.5076 21.2472 81.0733 8.12034 69.5378C5.25177 67.3849 3.3591 64.1848 2.8587 60.6416C2.35831 57.0984 3.29119 53.5022 5.4521 50.6443C7.613 47.7863 10.8249 45.9007 14.3813 45.4021C17.9377 44.9036 21.5472 45.833 24.4158 47.9859L24.4872 48.0096Z" fill="#9691D2"/>
<path fill-rule="evenodd" clip-rule="evenodd" d="M141.999 10.9089C142.593 11.4375 143.129 12.0273 143.598 12.6685C144.69 14.0842 145.489 15.7015 145.95 17.4268C146.41 19.1522 146.752 20.5276 146.51 22.2965C146.268 24.0655 145.677 25.7691 144.77 27.3088C143.863 28.8486 142.659 30.1939 141.227 31.2669C118.938 49.552 102.902 73.7578 86.2208 96.9649C73.2389 115.036 66.5809 125.498 46.3205 106.476C33.5056 94.4683 21.2872 81.01 8.13825 69.454C6.31235 68.0819 4.86314 66.2732 3.92464 64.1951C2.98613 62.1171 2.58863 59.8368 2.76888 57.5652C3.10297 57.8743 3.46094 58.1596 3.81889 58.4449C16.9202 70.0009 29.1385 83.4591 42.0011 95.4669C62.2615 114.489 68.8957 104.003 81.8777 85.9558C98.5824 62.7487 114.619 38.5667 136.908 20.2578C138.442 19.1007 139.711 17.6301 140.629 15.9447C141.547 14.2592 141.862 12.8216 141.999 10.9089Z" fill="#7872B9"/>
</svg>
