<svg width="100" height="100" viewBox="0 0 100 100" fill="none" xmlns="http://www.w3.org/2000/svg">
<path fill-rule="evenodd" clip-rule="evenodd" d="M71.412 14.6518C96.6413 22.0585 103.449 54.0208 94.8659 75.8406C86.2826 97.6604 54.6725 103.866 29.4566 96.4059C4.2406 88.9458 -3.19471 63.6829 5.42865 41.8765C14.052 20.07 46.196 7.24504 71.412 14.6518Z" fill="#CDE1FF"/>
<path fill-rule="evenodd" clip-rule="evenodd" d="M14.1215 77.9224L12.0391 86.1032C15.4564 91.8017 23.0118 95.5785 31.8621 97.687C47.7072 101.464 66.7426 100.943 80.8123 91.9218L87.9273 86.7438L88.1275 86.5303L88.4879 86.1032C87.6336 84.5418 87.153 80.4981 86.3922 78.4029C85.5995 76.1944 84.151 74.2808 82.2406 72.9179C78.5751 70.0551 74.5324 67.7109 70.2267 65.9516L64.5534 63.4693C65.3277 67.7932 63.5923 71.7568 59.0938 71.917C54.0879 72.1038 51.9521 68.1135 50.2301 66.4854C49.4025 67.2594 49.4025 67.5397 48.4948 68.4738C41.7402 75.3734 34.3984 71.1429 35.9068 63.4827C31.6467 65.1406 27.5036 67.0846 23.5057 69.3013C21.5709 70.3871 19.739 71.6468 18.0327 73.0647C16.5213 74.5053 15.2063 76.1386 14.1215 77.9224Z" fill="#FAA8B7"/>
<path fill-rule="evenodd" clip-rule="evenodd" d="M27.0549 24.7942C28.6141 24.5974 30.1024 24.0261 31.3926 23.129C32.6828 22.2319 33.7364 21.0357 34.4635 19.6428C34.9841 20.6304 34.7972 22.392 36.3724 23.6464C39.5361 26.1154 46.1571 23.7399 49.0404 20.2567C48.8269 24.4072 49.0404 27.3965 51.9238 28.9179C56.1287 31.1866 57.5303 27.7435 61.0544 27.7435C67.2616 27.7435 68.0359 39.9012 59.5193 40.5818V58.3313C61.8954 59.3322 63.2169 61.2673 64.5384 63.5093L70.2117 65.9916C70.8391 64.1766 74.3365 57.5973 76.4189 51.7653C82.3592 35.1102 82.6795 16.6935 69.2906 5.69685C61.5082 -0.695619 47.3985 -1.78994 37.1333 2.82759C29.8181 6.08387 16.3625 18.3216 27.0549 24.7942Z" fill="#645F9E"/>
<path fill-rule="evenodd" clip-rule="evenodd" d="M27.0536 24.7942C27.0536 27.7435 26.6665 30.8397 26.7199 34.0025C26.7733 37.1654 27.3339 39.8345 27.5742 42.8239C29.0026 46.3338 28.9091 48.5624 31.4053 51.3116C33.9016 54.0607 36.1308 55.075 41.0032 54.4344C43.4771 54.0103 45.9013 53.3351 48.2382 52.4192C49.8534 51.792 53.2708 49.8436 54.2185 49.6167C53.164 50.5376 51.1216 56.9967 41.0032 57.4238V58.3179C41.2968 61.7611 41.15 62.3216 43.8198 63.576C45.8452 64.5449 48.062 65.0478 50.3073 65.0478C52.5526 65.0478 54.7694 64.5449 56.7948 63.576C59.5314 62.2415 59.2644 61.7344 59.5981 58.2379V40.4884C68.1147 39.8078 67.3404 27.6367 61.1332 27.6501C57.6091 27.6501 56.2075 31.0932 52.0026 28.8245C49.186 27.3031 48.9057 24.3138 49.1193 20.1633C46.2359 23.6465 39.6149 26.022 36.4512 23.5531C34.876 22.3386 35.1163 20.577 34.5423 19.5494C33.8193 20.9701 32.7583 22.1913 31.4525 23.1058C30.1467 24.0204 28.6361 24.6002 27.0536 24.7942Z" fill="#FDD3D4"/>
<path fill-rule="evenodd" clip-rule="evenodd" d="M14.1206 77.9225C15.2343 76.133 16.581 74.4994 18.1253 73.0647C19.8316 71.6468 21.6635 70.3872 23.5983 69.3013C27.5962 67.0847 31.7393 65.1407 35.9994 63.4827C37.134 61.561 38.8961 59.012 41.0319 58.318V57.4239V54.4345C36.1596 55.0751 33.7968 53.9674 31.4341 51.3117C29.0713 48.6559 29.0313 46.3338 27.603 42.824C26.7753 44.5856 22.0365 47.6951 19.8206 49.3632C13.8937 53.8473 9.36845 59.3189 10.0626 67.82C10.3162 71.2097 12.0249 76.1609 14.1206 77.9225Z" fill="#645F9E"/>
<path fill-rule="evenodd" clip-rule="evenodd" d="M35.9452 63.4827C34.4368 71.1697 41.7786 75.3735 48.5331 68.4739C49.4409 67.5397 49.4409 67.2594 50.2685 66.4854C51.9905 68.1135 54.1263 72.1038 59.1321 71.917C63.6307 71.7569 65.366 67.7932 64.5918 63.4693C63.2569 61.2273 61.922 59.2922 59.5726 58.2913C59.2389 61.7611 59.5059 62.295 56.7694 63.6295C54.744 64.5984 52.5272 65.1013 50.2818 65.1013C48.0365 65.1013 45.8197 64.5984 43.7943 63.6295C41.1245 62.4017 41.2714 61.8145 40.9777 58.3714C38.8152 58.9853 37.0798 61.5609 35.9452 63.4827Z" fill="#6B66A6"/>
<path fill-rule="evenodd" clip-rule="evenodd" d="M41.0039 54.4343V57.4237C51.1223 56.9966 53.1647 50.5375 54.2193 49.6166C53.2715 49.8435 49.8542 51.7919 48.239 52.4191C45.9021 53.335 43.4778 54.0102 41.0039 54.4343Z" fill="#E8B7B8"/>
</svg>
