<svg width="100" height="100" viewBox="0 0 100 100" fill="none" xmlns="http://www.w3.org/2000/svg">
<path fill-rule="evenodd" clip-rule="evenodd" d="M54.2678 4.27686C79.0786 4.27686 94.4984 31.0204 96.1471 59.6546C96.7451 70.7237 93.1407 79.1588 87.0471 85.3963C77.4299 95.2857 61.6222 99.5518 46.3963 99.5518C39.2359 99.5518 31.0411 96.8532 24.4949 93.7506C17.1406 90.2763 11.5642 86.285 8.0083 79.6436C-6.58722 52.3829 16.785 4.27686 54.2678 4.27686Z" fill="#CDE1FF"/>
<path fill-rule="evenodd" clip-rule="evenodd" d="M31.4609 24.4112L33.6347 34.7727L39.3164 43.9639L40.5933 57.4569C40.5933 57.4569 39.4457 63.9206 39.1709 64.373C38.8961 64.8255 52.5865 66.6515 52.5865 66.6515L59.7307 64.6154L58.6639 57.8932L59.1488 49.3288L69.8651 51.1871L76.1365 25.6393L70.2854 16.6548L59.2942 18.6424L48.7396 16.6548L45.313 19.3695L31.4609 24.4112Z" fill="#FDD3D4"/>
<path fill-rule="evenodd" clip-rule="evenodd" d="M50.7929 89.4199C51.4556 91.5368 50.6151 92.3771 48.4977 91.7145C47.8188 89.533 48.627 88.7412 50.7929 89.4199ZM50.7929 84.1358L48.4977 84.2974C47.3662 80.5162 51.9243 80.5485 50.7929 84.1358ZM48.336 74.311L50.7929 74.1656L50.9383 76.638L48.4815 76.7834L48.336 74.311ZM12.2109 85.4124C15.1365 88.6443 22.7494 93.2173 28.1642 95.415C42.0189 101.089 57.5559 101.054 71.385 95.318C76.5896 93.185 84.3157 88.5312 87.0796 85.4124C86.1421 76.7834 84.3803 73.4061 79.0949 69.7864C74.3033 66.5785 69.1284 63.9835 63.6912 62.0623C64.4832 66.3607 62.6083 70.1419 58.3411 70.2712C53.3305 70.4328 51.1161 66.2637 49.6452 64.9063C48.594 66.2163 47.4313 67.4328 46.1701 68.5422C38.9451 73.3899 33.595 66.8455 35.8094 62.0785C31.8494 62.7895 22.9596 67.8312 19.9693 69.8996C14.7647 73.5031 13.1807 76.945 12.2109 85.4124Z" fill="#9690D4"/>
<path fill-rule="evenodd" clip-rule="evenodd" d="M20.5861 45.0144L40.4994 47.4221V38.7608C32.5309 37.9851 33.436 29.2268 36.4747 27.0292C39.5134 24.8315 41.4045 27.6917 44.1038 27.0292C46.8031 26.3666 47.4496 24.0397 47.0617 20.8563C51.2804 22.7308 53.0098 23.7004 58.6508 22.6985C62.5624 21.9875 66.9911 20.0161 70.9512 20.5332C74.0222 22.1491 73.2464 38.3083 70.6925 44.9498C69.4641 48.1816 68.3489 48.6502 67.072 50.6701C70.3046 50.961 71.1613 52.5931 73.5373 52.1891C76.2043 45.1437 79.6794 24.7184 76.5437 14.5542C69.0762 -2.42913 49.6317 -2.96238 38.2527 4.85869C36.3097 6.19146 34.6596 7.90712 33.4037 9.90038C30.171 14.8451 33.242 13.4716 28.9587 15.6531C19.8426 20.3877 18.2263 32.2971 20.5861 45.0144Z" fill="#FAA8B7"/>
<path fill-rule="evenodd" clip-rule="evenodd" d="M35.8104 62.1107C33.596 66.8292 38.9461 73.4222 46.1711 68.5744C47.4323 67.4651 48.595 66.2486 49.6462 64.9386C51.1171 66.296 53.3314 70.4651 58.3421 70.3035C62.6092 70.158 64.4842 66.3929 63.6922 62.0946C62.6254 60.5594 61.4293 57.7477 58.6816 56.9721C58.5361 60.3817 58.6815 60.8665 55.9984 62.0946C54.0104 63.0363 51.838 63.5248 49.6382 63.5248C47.4383 63.5248 45.2659 63.0363 43.2779 62.0946C40.6109 60.818 40.8049 60.3655 40.5947 56.9559C39.3705 57.3489 38.3015 58.1179 37.5398 59.1536C36.6811 59.9447 36.0788 60.9746 35.8104 62.1107Z" fill="#FFCF70"/>
<path fill-rule="evenodd" clip-rule="evenodd" d="M50.7948 89.4196C48.6289 88.741 47.8208 89.5328 48.4996 91.7143C50.617 92.3768 51.4899 91.5365 50.7948 89.4196Z" fill="#FFCF70"/>
<path fill-rule="evenodd" clip-rule="evenodd" d="M50.7937 84.1356C51.9251 80.5482 47.367 80.5159 48.4984 84.2972L50.7937 84.1356Z" fill="#FFCF70"/>
<path d="M50.8083 74.0629L48.3398 74.2134L48.4904 76.6812L50.9588 76.5307L50.8083 74.0629Z" fill="#FFCF70"/>
</svg>
