<svg width="100" height="100" viewBox="0 0 100 100" fill="none" xmlns="http://www.w3.org/2000/svg">
<path d="M71.9616 9.54767C85.2982 15.708 91.543 29.4405 94.8821 43.055C98.1822 56.5106 98.4197 70.9794 89.7644 82.1348C80.7877 93.7043 65.9339 100.288 50.7067 99.9903C36.0029 99.7028 23.205 91.5585 14.1568 80.6563C5.36224 70.0596 1.00802 56.7345 3.8786 43.5668C6.79406 30.1931 16.1686 19.0242 28.9892 12.6181C42.3357 5.94929 58.3962 3.28161 71.9616 9.54767Z" fill="#CDE1FF"/>
<path fill-rule="evenodd" clip-rule="evenodd" d="M64.5013 90C68.3651 86.946 72.0555 83.4785 75.6828 80.2654L75.8721 80.0746C75.5409 79.4383 75.2097 78.7862 74.8627 78.1499C71.0777 71.183 83.2055 64.8365 87.2113 59.5556C89.7977 56.1517 85.3976 51.9843 83.0005 50.855C68.2705 43.9676 91.0593 31.9903 79.247 25.0075C66.6304 17.5952 72.9387 18.645 66.4411 11.9803C63.0064 9.88818 59.2874 8.31277 55.4015 7.30392C54.9648 7.45174 54.5013 7.5013 54.0436 7.44909C53.5858 7.39687 53.145 7.24415 52.752 7.0017C51.6928 6.98537 50.6351 7.08672 49.5979 7.30392C48.8664 7.48191 48.1574 7.7434 47.4846 8.08333C43.3684 20.7128 37.8171 27.9501 34.8679 43.0769C32.6127 54.8792 25.3266 76.6229 39.5992 83.2558C47.5017 86.796 55.9034 89.0714 64.5013 90Z" fill="#B0C8EB"/>
<path d="M67.6933 97.5579C62.3888 99.2573 56.7446 100.101 51.0483 99.9904C38.1553 99.7403 26.7259 93.5056 18 84.6877C18.4845 81.5094 19.1951 78.4909 19.8745 76.7405C22.0443 71.103 24.6515 69.3833 28.4981 66.8461C28.8486 66.6149 29.2094 66.377 29.5811 66.1286C30.1958 65.9483 30.8389 65.6927 31.4637 65.4444C31.9779 65.24 32.4797 65.0406 32.9429 64.8922C33.6361 64.6701 34.4519 64.4765 35.2489 64.2875C35.6314 64.1967 36.0095 64.107 36.3678 64.0157C36.3678 68.1164 45.9165 75.8484 53.7291 69.3842C54.7707 68.5077 57.517 65.8469 57.517 64C57.7725 64.0622 58.0395 64.1257 58.3117 64.1905C58.9981 64.3538 59.7183 64.525 60.3737 64.7043C60.5182 64.748 60.7103 64.799 60.908 64.8516C61.207 64.9311 61.519 65.014 61.6995 65.08C62.3246 65.2893 62.5572 65.3371 62.6357 65.4727C62.7097 65.6006 62.6465 65.8068 62.6465 66.3008C62.2701 66.8677 61.8256 67.4769 61.3588 68.1169C59.2223 71.0457 56.6163 74.618 57.9116 77.7266C59.0322 80.3874 64.6193 83.596 68.4072 84.2064C67.8151 83.2261 67.3536 82.1739 67.0341 81.076C66.4817 77.6327 69.8435 73.6571 71.769 72.1702C71.8533 72.6175 72.1166 73.1374 72.4714 73.838C73.2463 75.3681 74.4578 77.7601 75.1939 82.1404C75.5955 84.5003 76.2354 91.3081 75.9115 94.0891C74.5734 94.8032 73.1977 95.4563 71.7905 96.0464L67.6933 97.5579Z" fill="#FFCF70"/>
<path fill-rule="evenodd" clip-rule="evenodd" d="M25 22.9045C25 26.6945 25.1113 29.4937 25.2545 33.1736C27.4812 33.7397 26.9722 34.7462 28.3082 35.0135C27.5448 32.4816 28.9604 26.4271 29.7715 24.1626C33.7637 13.1544 47.0603 10.591 53.4223 16.9443C56.0307 19.5549 62.0587 30.0755 62.345 32.8748C62.7108 36.4603 57.987 40.3446 56.9055 46.1633C56.4601 48.5222 57.0486 49.9218 56.9055 51.8875C57.5252 53.0202 58.0569 54.1978 58.496 55.4101C59.0326 56.4953 59.6382 57.5458 60.3092 58.5553C60.9828 59.5575 61.5784 60.6089 62.0905 61.7005C62.5602 62.6829 62.7943 63.7593 62.7744 64.8457L62.5359 65.7893C62.5359 65.7893 62.5359 65.9308 62.4404 66.0095C60.3887 69.1547 56.0784 73.6837 57.6689 77.4894C58.7982 80.1629 64.4286 83.3867 68.2458 84C67.649 83.0151 67.1839 81.9579 66.862 80.8548C66.3054 77.3951 69.6931 73.4007 71.6335 71.9067C76.6754 66.3869 88.2225 59.5932 80.3018 53.6645C78.0683 52.3005 76.0617 50.603 74.3533 48.6322C71.1723 44.1189 76.1665 37.3881 77.1526 32.4187C78.5363 25.3735 71.4109 25.8924 68.6275 19.5549C66.035 13.6733 65.8918 9.58457 61.4861 5.25992C56.0466 -0.0711908 45.3743 -2.99623 38.7578 4.64661C38.4079 5.05549 36.7538 7.79181 36.6107 7.79181C35.7836 8.21641 26.0179 8.71964 25 22.9045Z" fill="#6B66A6"/>
<path fill-rule="evenodd" clip-rule="evenodd" d="M42.3757 56.1988C48.4943 58.5246 52.0531 55.3716 56.642 52.0469C56.8137 50.0957 56.2362 48.7065 56.642 46.3652C57.7034 40.5899 62.3392 36.7345 61.9802 33.1756C61.6993 30.3972 55.7367 19.9548 53.2237 17.3637C46.9802 11.1202 33.9313 13.602 30.0135 24.5283C28.7389 27.522 28.0552 30.734 28 33.9873C28.5307 42.5254 32.8543 53.9667 42.3757 56.1988Z" fill="#FDD3D4"/>
<path fill-rule="evenodd" clip-rule="evenodd" d="M38.8366 54.5059C38.9149 56.5768 38.9149 58.8058 38.8366 60.8292C38.7582 62.8527 38.0216 63.6905 36 64.0699C36.094 68.2117 45.5284 76.0211 53.2388 69.4922C54.2731 68.6069 56.9843 65.9195 57 64.0541C54.759 63.5641 54.3828 62.6788 54.3828 60.3233C54.3828 58.2841 54.3828 56.0393 54.3828 54L54.1948 54.1107C50.4022 56.5452 47.4246 58.537 42.2687 56.5609C40.999 56.1163 39.8315 55.4173 38.8366 54.5059Z" fill="#E8B7B8"/>
<path fill-rule="evenodd" clip-rule="evenodd" d="M26.2705 51.7961C26.9397 53.9022 27.9027 54.0515 28.9147 55.3659C31.4447 58.5026 30.2205 61.4451 29.1269 65C30.3021 64.6863 31.3141 64.2084 32.4893 63.8499C33.6645 63.4914 34.8886 63.2823 36.0312 63.0134C38.1367 62.655 38.9528 62.0426 38.9855 59.9515C39.0181 57.8604 38.9855 55.8887 38.9855 53.9769C37.3533 53.7678 31.1672 47.3749 30.8244 45.239L27.1519 45C26.0233 47.1081 25.7125 49.5049 26.2705 51.7961Z" fill="#4B4680"/>
<path fill-rule="evenodd" clip-rule="evenodd" d="M31 45C28.3199 41.354 28.1899 36.2557 27.9788 35.1211C24.519 29.4479 21.2378 36.286 24.0804 42.3828C25.721 45.8926 26.923 44.7277 31 45Z" fill="#E8B7B8"/>
<path fill-rule="evenodd" clip-rule="evenodd" d="M54 53.7929C54 55.804 54.104 58.0178 54.104 60.0289C54.104 62.3519 54.5202 63.2249 56.9996 63.7082C57.9879 63.9265 59.1322 64.1603 60.1379 64.4098C60.5366 64.5189 61.2649 64.6748 61.5943 64.784C62.9294 65.1893 62.5826 64.9866 62.6346 66C62.6346 66 62.6346 65.735 62.7387 65.7817L62.9987 64.8463C63.0204 63.7692 62.7652 62.7022 62.2532 61.7283C61.6948 60.6461 61.0457 59.6037 60.3112 58.6102C59.5798 57.6095 58.9196 56.568 58.3347 55.4922C57.8559 54.2903 57.2763 53.1229 56.6008 52L55.3351 52.8263C54.9189 53.3096 54.3988 53.4811 54 53.7929Z" fill="#4B4680"/>
</svg>
