<svg width="395" height="395" viewBox="0 0 395 395" fill="none" xmlns="http://www.w3.org/2000/svg">
<g clip-path="url(#clip0_1_326)">
<path d="M298.232 0H97.3831C43.8086 0 0.37793 43.4367 0.37793 97.0186V297.896C0.37793 351.478 43.8086 394.914 97.3831 394.914H298.232C351.807 394.914 395.238 351.478 395.238 297.896V97.0186C395.238 43.4367 351.807 0 298.232 0Z" fill="#7872B9"/>
<path fill-rule="evenodd" clip-rule="evenodd" d="M276.499 111.328C282.677 111.328 288.717 113.159 293.856 116.591C298.995 120.022 303.001 124.9 305.369 130.607C307.738 136.315 308.361 142.597 307.162 148.659C305.963 154.721 302.994 160.291 298.631 164.667C294.268 169.042 288.706 172.026 282.648 173.242C276.59 174.458 270.308 173.85 264.595 171.497C258.882 169.144 253.994 165.15 250.549 160.02C247.104 154.89 245.257 148.854 245.241 142.674C245.235 138.563 246.039 134.492 247.607 130.691C249.175 126.891 251.476 123.437 254.378 120.526C257.281 117.616 260.728 115.305 264.524 113.727C268.319 112.149 272.388 111.333 276.499 111.328V111.328Z" fill="white"/>
<path fill-rule="evenodd" clip-rule="evenodd" d="M249.604 186.987H303.477C301.589 215.27 289.883 253.163 268.862 278.341C255.1 294.79 238.485 307.086 219.101 306.498C217.539 306.443 215.982 306.275 214.444 305.994C204.28 304.202 195.234 298.472 189.27 290.049C179.2 276.914 177.396 266.381 174.627 254.086C168.627 227.356 141.438 226.81 133.55 249.89C132.09 255.786 131.538 261.871 131.914 267.934V306.708H77.3696V264.745C77.6633 218.124 110.935 179.602 158.641 182.581C187.465 184.386 211.885 204.15 222.919 230.755C227.115 240.616 227.325 252.114 234.877 259.667C236.74 261.609 238.993 263.133 241.489 264.138C243.984 265.144 246.664 265.608 249.352 265.5L249.604 186.987Z" fill="white"/>
<path fill-rule="evenodd" clip-rule="evenodd" d="M153.522 111.454C159.706 111.454 165.751 113.288 170.892 116.725C176.034 120.162 180.04 125.047 182.405 130.762C184.769 136.477 185.386 142.765 184.176 148.831C182.967 154.896 179.986 160.467 175.61 164.837C171.234 169.207 165.66 172.182 159.594 173.383C153.528 174.585 147.242 173.96 141.531 171.587C135.82 169.214 130.941 165.201 127.511 160.054C124.082 154.908 122.255 148.859 122.264 142.674C122.264 138.571 123.073 134.508 124.644 130.717C126.215 126.926 128.518 123.483 131.422 120.583C134.325 117.684 137.771 115.385 141.563 113.818C145.355 112.252 149.419 111.448 153.522 111.454V111.454Z" fill="white"/>
</g>
<defs>
<clipPath id="clip0_1_326">
<rect width="395" height="395" fill="white"/>
</clipPath>
</defs>
</svg>
