<svg width="149" height="33" viewBox="0 0 149 33" fill="none" xmlns="http://www.w3.org/2000/svg">
<path fill-rule="evenodd" clip-rule="evenodd" d="M2.34329 17.0896C0.723664 16.5469 0.299919 14.499 1.69854 13.5184C20.7957 0.128984 71.8375 -6.56519 138.822 18.4843C136.066 13.0342 134.011 8.16145 133.823 4.79966C133.721 2.99035 134.987 1.31404 136.775 1.02048C142.139 0.13998 145.827 9.1501 148.287 26.9359C142.309 29.4887 127.238 35.9563 122.764 31.1392C120.861 29.0905 123.006 26.0479 125.742 25.4742C128.572 24.881 131.879 24.6548 135.501 24C60.3539 -2.43582 29.3968 13.7897 3.32808 17.1875C2.99567 17.2308 2.66114 17.1961 2.34329 17.0896Z" fill="#FACD6E"/>
</svg>
