<svg width="28" height="28" viewBox="0 0 28 28" fill="none" xmlns="http://www.w3.org/2000/svg">
<path d="M3.40227 13.7761C10.7336 10.5508 20.2209 6.61856 21.5305 6.07431C24.9658 4.64981 26.0199 4.92281 25.4943 8.07747C25.1169 10.3449 24.0278 17.8518 23.1598 22.5243C22.6447 25.2951 21.4891 25.6236 19.672 24.4248C18.7982 23.8479 14.3876 20.9312 13.4304 20.2464C12.5565 19.6222 11.3514 18.8715 12.8628 17.3927C13.4006 16.866 16.9263 13.4996 19.6732 10.8792C20.0331 10.5351 19.581 9.96981 19.1657 10.2457C15.4633 12.701 10.3299 16.1088 9.6766 16.5527C8.6896 17.223 7.74169 17.5304 6.0401 17.0416C4.75444 16.6723 3.49852 16.2319 3.00969 16.0639C1.12727 15.4176 1.5741 14.5805 3.40227 13.7761Z" fill="white"/>
</svg>
